<svg width="2880" height="4092" viewBox="0 0 2880 4092" fill="none" xmlns="http://www.w3.org/2000/svg">
<rect width="1528.97" height="2062.37" fill="black" fill-opacity="0" transform="translate(-57.1914 -33.8293) scale(2)"/>
<path d="M2827.41 -20.7563L2991.47 73.7064" stroke="white" stroke-opacity="0.2751" stroke-miterlimit="10"/>
<path d="M-56.7734 78.3451L131.316 -30.0339" stroke="white" stroke-opacity="0.2751" stroke-miterlimit="10"/>
<path d="M2532.2 -30.0339L2991.46 235.221" stroke="white" stroke-opacity="0.2751" stroke-miterlimit="10"/>
<path d="M-56.7734 239.016L410.077 -30.4558" stroke="white" stroke-opacity="0.2751" stroke-miterlimit="10"/>
<path d="M2392.61 -30.0339L2991.46 315.767" stroke="white" stroke-opacity="0.2751" stroke-miterlimit="10"/>
<path d="M-56.7734 319.562L549.247 -30.4558" stroke="white" stroke-opacity="0.2751" stroke-miterlimit="10"/>
<path d="M2253.44 -30.0339L2991.46 396.313" stroke="white" stroke-opacity="0.2751" stroke-miterlimit="10"/>
<path d="M-56.7734 400.109L688.838 -30.0339" stroke="white" stroke-opacity="0.2751" stroke-miterlimit="10"/>
<path d="M2671.38 -30.0339L2991.47 154.674" stroke="white" stroke-opacity="0.2751" stroke-miterlimit="10"/>
<path d="M-56.7734 158.891L270.486 -30.0339" stroke="white" stroke-opacity="0.2751" stroke-miterlimit="10"/>
<path d="M1974.26 -30.0339L2991.47 556.984" stroke="white" stroke-opacity="0.2751" stroke-miterlimit="10"/>
<path d="M-56.7734 561.201L967.599 -30.0339" stroke="white" stroke-opacity="0.2751" stroke-miterlimit="10"/>
<path d="M2113.85 -30.0339L2991.46 476.438" stroke="white" stroke-opacity="0.2751" stroke-miterlimit="10"/>
<path d="M-56.7734 480.655L828.008 -30.0339" stroke="white" stroke-opacity="0.2751" stroke-miterlimit="10"/>
<path d="M1416.74 -30.0339L2991.47 879.17" stroke="white" stroke-opacity="0.2751" stroke-miterlimit="10"/>
<path d="M-56.7734 882.965L1525.12 -30.0339" stroke="white" stroke-opacity="0.2751" stroke-miterlimit="10"/>
<path d="M1835.09 -30.0339L2991.46 637.531" stroke="white" stroke-opacity="0.2751" stroke-miterlimit="10"/>
<path d="M-56.7734 641.748L1107.19 -30.0339" stroke="white" stroke-opacity="0.2751" stroke-miterlimit="10"/>
<path d="M1695.5 -30.0339L2991.46 718.077" stroke="white" stroke-opacity="0.2751" stroke-miterlimit="10"/>
<path d="M-56.7734 722.294L1245.1 -30.0339" stroke="white" stroke-opacity="0.2751" stroke-miterlimit="10"/>
<path d="M1556.33 -30.0339L2991.47 798.623" stroke="white" stroke-opacity="0.2751" stroke-miterlimit="10"/>
<path d="M-56.7734 802.84L1385.95 -30.0339" stroke="white" stroke-opacity="0.2751" stroke-miterlimit="10"/>
<path d="M1141.35 -30.0339L2985.98 1034.78" stroke="white" stroke-opacity="0.2751" stroke-miterlimit="10"/>
<path d="M-56.7734 1044.06L1804.3 -30.0339" stroke="white" stroke-opacity="0.2751" stroke-miterlimit="10"/>
<path d="M998.383 -30.0339L2991.46 1120.39" stroke="white" stroke-opacity="0.2751" stroke-miterlimit="10"/>
<path d="M-56.7734 1124.6L1943.47 -30.0339" stroke="white" stroke-opacity="0.2751" stroke-miterlimit="10"/>
<path d="M859.211 -30.0339L2991.46 1200.93" stroke="white" stroke-opacity="0.2751" stroke-miterlimit="10"/>
<path d="M-56.7734 1205.15L2083.06 -30.0339" stroke="white" stroke-opacity="0.2751" stroke-miterlimit="10"/>
<path d="M1277.14 -30.0339L2991.46 959.716" stroke="white" stroke-opacity="0.2751" stroke-miterlimit="10"/>
<path d="M-56.7734 963.511L1664.71 -30.0339" stroke="white" stroke-opacity="0.2751" stroke-miterlimit="10"/>
<path d="M580.457 -30.0339L2991.47 1362.03" stroke="white" stroke-opacity="0.2751" stroke-miterlimit="10"/>
<path d="M-56.7734 1366.24L2361.83 -30.0339" stroke="white" stroke-opacity="0.2751" stroke-miterlimit="10"/>
<path d="M714.137 -30.0339L2985.98 1281.48" stroke="white" stroke-opacity="0.2751" stroke-miterlimit="10"/>
<path d="M-56.7734 1285.7L2222.23 -30.0339" stroke="white" stroke-opacity="0.2751" stroke-miterlimit="10"/>
<path d="M49.918 -5.57471L2991.46 1683.79" stroke="white" stroke-opacity="0.2751" stroke-miterlimit="10"/>
<path d="M-42.4336 1680.42L2941.7 -33.8293" stroke="white" stroke-opacity="0.2751" stroke-miterlimit="10"/>
<path d="M440.863 -30.0339L2991.46 1442.57" stroke="white" stroke-opacity="0.2751" stroke-miterlimit="10"/>
<path d="M-56.7734 1446.37L2501.42 -30.0339" stroke="white" stroke-opacity="0.2751" stroke-miterlimit="10"/>
<path d="M301.273 -30.0339L2991.46 1522.7" stroke="white" stroke-opacity="0.2751" stroke-miterlimit="10"/>
<path d="M-56.7734 1526.91L2640.59 -30.0339" stroke="white" stroke-opacity="0.2751" stroke-miterlimit="10"/>
<path d="M162.109 -30.0339L2991.47 1603.67" stroke="white" stroke-opacity="0.2751" stroke-miterlimit="10"/>
<path d="M-56.7734 1607.46L2780.18 -30.0339" stroke="white" stroke-opacity="0.2751" stroke-miterlimit="10"/>
<path d="M-56.7734 85.0928L2991.46 1844.88" stroke="white" stroke-opacity="0.2751" stroke-miterlimit="10"/>
<path d="M-56.7734 1849.1L2991.46 89.3098" stroke="white" stroke-opacity="0.2751" stroke-miterlimit="10"/>
<path d="M-56.7734 165.639L2991.46 1925.43" stroke="white" stroke-opacity="0.2751" stroke-miterlimit="10"/>
<path d="M-56.7734 1929.65L2991.46 169.856" stroke="white" stroke-opacity="0.2751" stroke-miterlimit="10"/>
<path d="M-56.7734 246.186L2991.46 2005.98" stroke="white" stroke-opacity="0.2751" stroke-miterlimit="10"/>
<path d="M-56.7734 2010.19L2991.46 250.403" stroke="white" stroke-opacity="0.2751" stroke-miterlimit="10"/>
<path d="M-56.7734 4.54614L2991.46 1764.34" stroke="white" stroke-opacity="0.2751" stroke-miterlimit="10"/>
<path d="M-56.7734 1768.55L2991.46 8.76318" stroke="white" stroke-opacity="0.2751" stroke-miterlimit="10"/>
<path d="M-56.7734 406.856L2991.46 2166.65" stroke="white" stroke-opacity="0.2751" stroke-miterlimit="10"/>
<path d="M-56.7734 2170.86L2991.46 411.073" stroke="white" stroke-opacity="0.2751" stroke-miterlimit="10"/>
<path d="M-56.7734 326.31L2991.46 2086.1" stroke="white" stroke-opacity="0.2751" stroke-miterlimit="10"/>
<path d="M-56.7734 2090.32L2991.46 330.527" stroke="white" stroke-opacity="0.2751" stroke-miterlimit="10"/>
<path d="M-56.7734 729.042L2991.46 2488.83" stroke="white" stroke-opacity="0.2751" stroke-miterlimit="10"/>
<path d="M-56.7734 2493.05L2991.46 733.259" stroke="white" stroke-opacity="0.2751" stroke-miterlimit="10"/>
<path d="M-57.1914 487.402L2991.04 2247.19" stroke="white" stroke-opacity="0.2751" stroke-miterlimit="10"/>
<path d="M-57.1914 2251.41L2991.04 491.619" stroke="white" stroke-opacity="0.2751" stroke-miterlimit="10"/>
<path d="M-57.1914 567.949L2991.04 2327.74" stroke="white" stroke-opacity="0.2751" stroke-miterlimit="10"/>
<path d="M-57.1914 2331.96L2991.04 572.166" stroke="white" stroke-opacity="0.2751" stroke-miterlimit="10"/>
<path d="M-57.1914 648.495L2991.04 2408.28" stroke="white" stroke-opacity="0.2751" stroke-miterlimit="10"/>
<path d="M-57.1914 2412.5L2991.04 652.712" stroke="white" stroke-opacity="0.2751" stroke-miterlimit="10"/>
<path d="M-57.1914 889.713L2991.04 2649.5" stroke="white" stroke-opacity="0.2751" stroke-miterlimit="10"/>
<path d="M-57.1914 2653.72L2991.04 893.929" stroke="white" stroke-opacity="0.2751" stroke-miterlimit="10"/>
<path d="M-57.1914 809.588L2991.04 2569.38" stroke="white" stroke-opacity="0.2751" stroke-miterlimit="10"/>
<path d="M-57.1914 2573.59L2991.04 813.805" stroke="white" stroke-opacity="0.2751" stroke-miterlimit="10"/>
<path d="M-57.1914 976.163L2991.04 2735.95" stroke="white" stroke-opacity="0.2751" stroke-miterlimit="10"/>
<path d="M-57.1914 2731.74L2991.04 971.946" stroke="white" stroke-opacity="0.2751" stroke-miterlimit="10"/>
<path d="M-57.1914 1053.76L2991.04 2813.55" stroke="white" stroke-opacity="0.2751" stroke-miterlimit="10"/>
<path d="M-57.1914 2817.76L2991.04 1057.97" stroke="white" stroke-opacity="0.2751" stroke-miterlimit="10"/>
<path d="M-55.082 1133.88L2993.15 2893.67" stroke="white" stroke-opacity="0.2751" stroke-miterlimit="10"/>
<path d="M-55.082 2897.89L2993.15 1138.1" stroke="white" stroke-opacity="0.2751" stroke-miterlimit="10"/>
<path d="M2828.26 4052.53L2992.31 3958.06" stroke="white" stroke-opacity="0.2751" stroke-miterlimit="10"/>
<path d="M-55.9297 3953.43L131.738 4061.8" stroke="white" stroke-opacity="0.2751" stroke-miterlimit="10"/>
<path d="M2533.05 4061.8L2992.31 3796.55" stroke="white" stroke-opacity="0.2751" stroke-miterlimit="10"/>
<path d="M-55.9297 3792.33L410.921 4061.8" stroke="white" stroke-opacity="0.2751" stroke-miterlimit="10"/>
<path d="M2393.46 4061.8L2992.31 3716" stroke="white" stroke-opacity="0.2751" stroke-miterlimit="10"/>
<path d="M-55.9297 3712.21L550.091 4062.23" stroke="white" stroke-opacity="0.2751" stroke-miterlimit="10"/>
<path d="M2253.87 4061.8L2991.89 3635.46" stroke="white" stroke-opacity="0.2751" stroke-miterlimit="10"/>
<path d="M-55.9297 3631.66L689.682 4062.23" stroke="white" stroke-opacity="0.2751" stroke-miterlimit="10"/>
<path d="M2672.22 4061.8L2992.31 3877.1" stroke="white" stroke-opacity="0.2751" stroke-miterlimit="10"/>
<path d="M-55.9297 3872.88L271.33 4061.8" stroke="white" stroke-opacity="0.2751" stroke-miterlimit="10"/>
<path d="M1975.1 4061.8L2992.3 3474.79" stroke="white" stroke-opacity="0.2751" stroke-miterlimit="10"/>
<path d="M-55.9297 3470.57L968.443 4061.8" stroke="white" stroke-opacity="0.2751" stroke-miterlimit="10"/>
<path d="M2114.7 4061.8L2992.31 3555.33" stroke="white" stroke-opacity="0.2751" stroke-miterlimit="10"/>
<path d="M-55.9297 3551.11L828.852 4061.8" stroke="white" stroke-opacity="0.2751" stroke-miterlimit="10"/>
<path d="M1409.15 4061.8L2983.87 3152.6" stroke="white" stroke-opacity="0.2751" stroke-miterlimit="10"/>
<path d="M-55.9297 3148.81L1525.96 4062.23" stroke="white" stroke-opacity="0.2751" stroke-miterlimit="10"/>
<path d="M1835.93 4061.8L2992.3 3394.24" stroke="white" stroke-opacity="0.2751" stroke-miterlimit="10"/>
<path d="M-55.9297 3390.02L1107.61 4061.8" stroke="white" stroke-opacity="0.2751" stroke-miterlimit="10"/>
<path d="M1696.34 4061.8L2992.3 3313.69" stroke="white" stroke-opacity="0.2751" stroke-miterlimit="10"/>
<path d="M-55.9297 3309.48L1245.94 4061.8" stroke="white" stroke-opacity="0.2751" stroke-miterlimit="10"/>
<path d="M1556.75 4061.8L2991.88 3233.15" stroke="white" stroke-opacity="0.2751" stroke-miterlimit="10"/>
<path d="M-55.9297 3228.93L1386.8 4061.8" stroke="white" stroke-opacity="0.2751" stroke-miterlimit="10"/>
<path d="M1150.62 4053.37L2995.25 2988.56" stroke="white" stroke-opacity="0.2751" stroke-miterlimit="10"/>
<path d="M-55.9297 2987.71L1804.73 4061.8" stroke="white" stroke-opacity="0.2751" stroke-miterlimit="10"/>
<path d="M999.23 4061.8L2992.31 2911.38" stroke="white" stroke-opacity="0.2751" stroke-miterlimit="10"/>
<path d="M-55.9297 2907.17L1944.32 4061.8" stroke="white" stroke-opacity="0.2751" stroke-miterlimit="10"/>
<path d="M851.199 4061.8L2983.45 2830.84" stroke="white" stroke-opacity="0.2751" stroke-miterlimit="10"/>
<path d="M-55.9297 2826.62L2083.91 4061.8" stroke="white" stroke-opacity="0.2751" stroke-miterlimit="10"/>
<path d="M1286.43 4053.37L3000.74 3063.62" stroke="white" stroke-opacity="0.2751" stroke-miterlimit="10"/>
<path d="M-55.9297 3068.26L1665.56 4062.23" stroke="white" stroke-opacity="0.2751" stroke-miterlimit="10"/>
<path d="M580.875 4061.8L2992.3 2669.74" stroke="white" stroke-opacity="0.2751" stroke-miterlimit="10"/>
<path d="M-55.9297 2665.53L2362.67 4061.8" stroke="white" stroke-opacity="0.2751" stroke-miterlimit="10"/>
<path d="M714.984 4061.8L2986.82 2750.29" stroke="white" stroke-opacity="0.2751" stroke-miterlimit="10"/>
<path d="M-55.9297 2746.07L2223.08 4061.8" stroke="white" stroke-opacity="0.2751" stroke-miterlimit="10"/>
<path d="M51.1875 4036.92L2992.73 2347.56" stroke="white" stroke-opacity="0.2751" stroke-miterlimit="10"/>
<path d="M-24.7227 2376.66L2959.41 4090.9" stroke="white" stroke-opacity="0.2751" stroke-miterlimit="10"/>
<path d="M441.707 4053.37L2992.31 2580.76" stroke="white" stroke-opacity="0.2751" stroke-miterlimit="10"/>
<path d="M-55.9297 2584.98L2501.84 4061.8" stroke="white" stroke-opacity="0.2751" stroke-miterlimit="10"/>
<path d="M302.117 4053.37L2992.31 2500.22" stroke="white" stroke-opacity="0.2751" stroke-miterlimit="10"/>
<path d="M-55.9297 2504.86L2641.43 4062.23" stroke="white" stroke-opacity="0.2751" stroke-miterlimit="10"/>
<path d="M162.945 4053.37L2992.31 2419.67" stroke="white" stroke-opacity="0.2751" stroke-miterlimit="10"/>
<path d="M-55.9297 2424.31L2780.6 4062.23" stroke="white" stroke-opacity="0.2751" stroke-miterlimit="10"/>
<path d="M-55.9297 3938.24L2992.31 2178.45" stroke="white" stroke-opacity="0.2751" stroke-miterlimit="10"/>
<path d="M-55.9297 2182.67L2992.31 3942.46" stroke="white" stroke-opacity="0.2751" stroke-miterlimit="10"/>
<path d="M-55.9297 3857.7L2992.31 2097.91" stroke="white" stroke-opacity="0.2751" stroke-miterlimit="10"/>
<path d="M-55.9297 2102.12L2992.31 3861.91" stroke="white" stroke-opacity="0.2751" stroke-miterlimit="10"/>
<path d="M-55.9297 3777.15L2992.31 2017.36" stroke="white" stroke-opacity="0.2751" stroke-miterlimit="10"/>
<path d="M-55.9297 2021.58L2992.31 3781.37" stroke="white" stroke-opacity="0.2751" stroke-miterlimit="10"/>
<path d="M-55.9297 4018.79L2992.31 2259" stroke="white" stroke-opacity="0.2751" stroke-miterlimit="10"/>
<path d="M-55.9297 2263.22L2992.31 4023.01" stroke="white" stroke-opacity="0.2751" stroke-miterlimit="10"/>
<path d="M-55.9297 3616.06L2992.31 1856.27" stroke="white" stroke-opacity="0.2751" stroke-miterlimit="10"/>
<path d="M-55.9297 1860.91L2992.31 3620.7" stroke="white" stroke-opacity="0.2751" stroke-miterlimit="10"/>
<path d="M-55.9297 3696.6L2992.31 1936.81" stroke="white" stroke-opacity="0.2751" stroke-miterlimit="10"/>
<path d="M-55.9297 1941.45L2992.31 3701.24" stroke="white" stroke-opacity="0.2751" stroke-miterlimit="10"/>
<path d="M-56.7734 3294.29L2991.46 1534.51" stroke="white" stroke-opacity="0.2751" stroke-miterlimit="10"/>
<path d="M-56.7734 1538.72L2991.46 3298.51" stroke="white" stroke-opacity="0.2751" stroke-miterlimit="10"/>
<path d="M-55.9297 3535.93L2992.31 1776.14" stroke="white" stroke-opacity="0.2751" stroke-miterlimit="10"/>
<path d="M-55.9297 1780.36L2992.31 3540.15" stroke="white" stroke-opacity="0.2751" stroke-miterlimit="10"/>
<path d="M-55.9297 3455.39L2992.31 1695.6" stroke="white" stroke-opacity="0.2751" stroke-miterlimit="10"/>
<path d="M-55.9297 1699.81L2992.31 3459.6" stroke="white" stroke-opacity="0.2751" stroke-miterlimit="10"/>
<path d="M-57.1914 3374.84L2991.04 1615.05" stroke="white" stroke-opacity="0.2751" stroke-miterlimit="10"/>
<path d="M-57.1914 1619.27L2991.04 3379.06" stroke="white" stroke-opacity="0.2751" stroke-miterlimit="10"/>
<path d="M-57.1914 3133.2L2991.04 1373.41" stroke="white" stroke-opacity="0.2751" stroke-miterlimit="10"/>
<path d="M-57.1914 1378.05L2991.04 3137.84" stroke="white" stroke-opacity="0.2751" stroke-miterlimit="10"/>
<path d="M-57.1914 3213.75L2991.04 1453.96" stroke="white" stroke-opacity="0.2751" stroke-miterlimit="10"/>
<path d="M-57.1914 1458.18L2991.04 3217.97" stroke="white" stroke-opacity="0.2751" stroke-miterlimit="10"/>
<path d="M-57.1914 3056.03L2991.04 1296.24" stroke="white" stroke-opacity="0.2751" stroke-miterlimit="10"/>
<path d="M-57.1914 1300.46L2991.04 3060.25" stroke="white" stroke-opacity="0.2751" stroke-miterlimit="10"/>
<path d="M-57.1914 2978.01L2991.04 1218.22" stroke="white" stroke-opacity="0.2751" stroke-miterlimit="10"/>
<path d="M-57.1914 1222.44L2991.04 2982.23" stroke="white" stroke-opacity="0.2751" stroke-miterlimit="10"/>
</svg>
