<?xml version="1.0" encoding="utf-8"?>
<!-- Generator: Adobe Illustrator 20.1.0, SVG Export Plug-In . SVG Version: 6.00 Build 0)  -->
<svg version="1.1" id="Layer_1" xmlns="http://www.w3.org/2000/svg" xmlns:xlink="http://www.w3.org/1999/xlink" x="0px" y="0px"
	 viewBox="0 0 4188 4209" style="enable-background:new 0 0 4188 4209;" xml:space="preserve">
<style type="text/css">
	.st0{opacity:1;}
	.st1{fill-opacity:0;}
	.st2{fill:none;stroke:#FECA30;stroke-width:3;stroke-miterlimit:10;}
</style>
<g class="st0">
	<rect x="1.3" y="1.7" class="st1" width="4183.7" height="4204.3"/>
	<path class="st2" d="M1997.1,200.7c1.5,231.3,3.3,462.6,4.8,693.9c0.6,79.2-19.2,183.3-98.1,192.6c-45.3,5.4-87.6-29.1-107.4-70.2
		c-19.8-41.1-22.5-87.9-27-133.5c-14.7-146.4-52.2-290.7-110.4-426c-13.5-31.5-35.4-67.2-69.6-67.2c-43.8,0-62.1,55.2-66.9,98.7
		c-17.4,153-25.2,307.2-23.7,461.4c0.3,37.5,1.2,75.9-12.6,110.7c-13.8,34.8-46.5,65.1-84,63.6c-66-2.4-89.7-87.6-94.5-153.6
		c-10.5-141-21-281.7-31.8-422.7c-7.2-98.1-19.2-206.1-91.8-272.7c-38.4-35.1-90-54-141.9-58.5c-127.5-11.1-258,68.4-306.3,186.9
		c-4.5,11.4-8.7,23.7-5.7,35.4c2.7,11.4,11.7,20.4,20.7,27.6c74.1,60.6,179.4,57,273.9,73.2c94.5,16.2,201,80.1,193.2,175.8
		c-5.1,62.4-58.5,109.8-114,138.9c-134.7,71.1-304.5,71.7-439.8,1.8"/>
	<path class="st2" d="M2190.3,2662.8c-13.8-90-27.6-182.1-10.2-271.5c17.4-89.4,72.6-177,158.1-207.6
		c34.5-12.3,71.7-14.7,108.3-17.1c86.4-5.7,188.1-4.5,239.7,65.1c46.8,63,28.2,150.3,27,228.6s41.4,176.1,119.4,171
		c82.5-5.7,107.1-113.7,108.9-196.2c1.2-54.6,2.7-109.2,3.9-164.1c0.6-24.9,2.1-51.9,18.3-70.5c13.8-15.6,35.1-21.9,55.5-27
		c123.3-32.7,279.9-54.9,356.1,47.7c45.3,60.9,42,143.4,46.5,219c4.5,75.6,27.3,162.3,96.9,192.9c29.4,12.9,62.7,13.5,94.8,13.2
		c153-0.9,305.7-11.4,457.2-30.9c24.9-3.3,51.6-7.5,70.2-24.3c38.1-34.5,18.3-103.5-25.2-131.4c-43.2-27.9-98.4-27.3-150-25.5
		c-96,3.3-191.7,6.6-287.7,10.2c-67.8,2.4-146.7-0.3-187.5-54.3c-45.3-60-11.7-152.7,50.4-195.3c62.1-42.6,141.6-47.7,216.9-48.6
		c124.2-1.8,248.4,3.6,372,15.9"/>
	<path class="st2" d="M144,1975.5c33.9-154.5-2.7-310.8-8.4-466.2s23.7-317.7,174.9-451.2c14.7-12.9,37.8-27,65.4-23.4
		c18.6,2.4,29.7,12.3,38.1,21.6c134.4,148.5,72,326.1,154.8,484.8c8.7,16.5,24.3,35.4,56.1,38.7c39.9,3.9,69-19.2,83.4-39.3
		c111.6-153.3,77.7-326.7,167.4-484.2c14.4-25.2,44.7-54.9,94.2-53.1c28.8,0.9,51.9,13.2,67.5,26.1c49.2,40.5,51,91.5,51,139.8
		c0.6,163.5,0.9,327,1.5,490.5c0.3,98.4,8.4,207.6,138.3,277.8c102,55.2,255.3,72.3,399.6,82.5c411,29.4,830.1,26.4,1239.6-9.6
		c52.8-4.5,107.4-10.2,152.1-25.8c113.7-39.3,122.1-133.8,41.4-191.7c-80.4-57.3-222.3-82.8-357.9-85.8s-269.7,12.6-404.4,20.7
		c-134.7,8.1-277.5,7.5-398.1-25.2c-173.1-47.1-268.2-158.4-241.5-260.4s164.1-191.7,338.7-237c174.6-45.3,381.6-49.2,569.1-22.5
		c208.5,30,393.3,95.1,597.6,132.3"/>
	<path class="st2" d="M3534.6,1873.2c-45-393.9-77.1-789-95.7-1185c-3.3-69.9-5.4-143.4,27-205.5c32.4-62.1,112.2-105,174.3-72.9
		c40.2,20.7,61.5,65.7,77.1,108.3c104.7,291.9,57,612.6,66.6,922.5c4.5,140.4,25.8,291.6,123.3,392.4c30.9,32.1,72.9,58.8,117.3,54
		c76.2-7.8,112.5-96.6,127.5-171.6c92.4-464.1-27-941.1-145.5-1399.2c-12.9-49.8-28.5-103.8-69.6-134.7
		c-32.7-24.6-75.3-30-116.1-33.9c-473.7-48.3-953.4-38.4-1425,29.1c-94.5,13.5-237.7,34.8-233.4,135.6
		c6.3,149.4,609.6,61.5,904.5,149.4c67.2,20.1,173.1,21,141.3,135.3C3154.5,717,2511,577.2,2193,706.8c-16.2,6.6-33.3,15-41.7,30.3
		c-13.5,24.3,0.3,54.9,17.4,76.8c104.7,135,304.8,135.9,475.5,124.2c165.9-11.4,332.1-22.5,498-33.9"/>
	<path class="st2" d="M345,1758.6c4.2,319.2,32.1,446.1,83.7,761.1c14.4,87.6,35.4,183,105.9,236.4c56.4,42.9,132,48.9,203.1,52.2
		c323.1,15,647.1,10.5,969.6-12.9c104.7-7.8,238.8-46.5,242.7-151.5c2.1-60.6-47.7-113.4-104.7-134.4s-119.7-17.4-180.3-13.5
		c-211.8,13.5-423.6,27-635.4,40.5c-111.6,7.2-240,7.5-314.1-76.2c-40.8-46.2-55.8-109.5-67.2-170.4c-15.9-85.2-27-171-34.2-257.4
		c-3.3-41.4-4.5-87,20.1-120.6c42.9-58.2,140.7-42.3,188.4,11.7c48,54,59.7,129.9,71.4,201c11.4,71.1,27.3,147.3,79.8,196.8
		c62.7,59.4,158.4,63,244.8,62.1c153-1.5,305.7-6.9,458.4-15.3"/>
	<path class="st2" d="M1348.8,3037.5c153.6-9.3,307.5-18.3,461.1-27.6c41.4-2.4,87.3-3.6,119.4,22.8
		c51.6,42.6,30.9,132.6-22.5,172.8c-53.4,40.2-124.8,44.4-191.7,47.1c-195.6,8.1-391.2,17.1-586.8,26.4
		c-47.1,2.4-100.5,7.5-129.3,45c-34.2,44.1-13.2,113.1,30,148.5c43.2,35.4,101.1,45.9,156.6,53.7c195.9,28.2,394.2,41.7,592.2,39.6
		c47.7-0.6,96.9-2.1,140.1-22.2c97.8-45,133.2-165.3,144.6-272.4c11.4-107.1,12.3-223.5,78.3-308.7c27.9-36,87-62.1,114.9-26.4
		c8.4,10.8,11.4,24.9,13.8,38.4c45,249.3-0.6,505.2-0.9,758.4c0,51.9,2.4,106.5,28.5,151.2c26.1,44.7,83.4,75.6,131.4,55.5
		c33.3-14.1,53.4-48.3,64.8-82.5c40.5-119.7,0.3-249.9-29.4-372.6c-29.7-122.7-45.3-264.9,32.7-364.8c72.6-92.7,203.4-117,321-111.3
		c82.5,4.2,182.7,37.2,195,119.1c11.4,77.1-67.5,138.9-143.4,155.7c-75.9,16.8-157.2,7.5-230.4,34.2c-25.2,9.3-50.4,24.6-60,49.5
		c-24.6,65.7,69.9,108.6,139.8,111.9c129.3,6.3,259.5-1.2,387.3-22.2"/>
	<path class="st2" d="M4006.5,2817.3c-132.3-18.9-267.3-37.8-399.3-15c-131.7,22.8-262.2,94.2-322.2,213.9
		c-34.5,69-42.9,147.9-51,224.7c-14.4,141.3-28.8,286.8,13.2,422.7c41.7,135.6,154.8,259.8,296.4,269.1
		c78.9,5.1,155.4-24.9,227.7-57.3c41.4-18.6,84.9-40.5,107.7-79.8c40.8-69.9-3.9-162.9-69.6-210c-65.7-47.1-147.9-64.8-221.4-98.7
		c-73.8-33.6-145.5-94.8-149.7-175.8c-5.7-109.8,114-184.5,222.6-203.1c53.1-9,108.3-10.8,160.2,4.2
		c94.8,27.3,166.8,108.3,205.5,198.9c38.7,90.6,48.9,190.8,54.3,289.2c8.4,147.6,3.9,308.1-87,424.5
		c-131.7,168.6-380.7,173.4-594.6,162.9c-59.4-3-121.5-6.6-173.1-36.3c-100.5-58.2-124.8-189.9-188.4-287.1
		c-21.9-33.6-50.7-64.8-87.9-80.1c-93.3-38.4-202.8,44.4-222.3,143.4s28.2,199.8,91.2,278.4c30.3-29.7,60.6-59.1,90.9-88.8"/>
	<path class="st2" d="M271.2,2919.6c-58.2,295.5-3.6,611.7,149.7,870.9c24.3,40.8,53.7,82.8,98.1,99.3
		c104.7,38.7,201.6-92.1,196.5-203.7c-5.1-111.6-64.8-214.8-72.9-326.4c-5.1-68.4,22.2-150.9,89.1-165.9
		c51-11.4,103.2,24.6,127.5,70.5c24.3,45.9,27.9,100.2,30.9,152.4c8.4,150.9,16.8,302.1,25.5,453c4.2,72.6,14.7,156.9,77.1,194.7
		c31.8,19.2,70.8,21.3,107.7,23.1c328.2,15,690.9,18.9,941.7-193.2c-28.2-39-56.7-78.3-84.9-117.3
		c-195.6-20.4-394.2-15.6-588.6,14.7c-55.5,8.7-112.8,20.1-157.5,54.3c-44.7,34.2-72,96.9-48.6,147.9c121.2,9,243.3,8.1,364.5-2.4"
		/>
	<path class="st2" d="M709.2,747.3c-145.8-40.8-195.3-78.3-318.6,9.9C339,794.1,303,848.7,255.3,890.4
		c-47.7,41.7-117.9,70.2-174.3,41.1C28.5,904.2,9.6,839.4,3.6,780.6c-6.9-66.3-0.6-141,48-186.6c61.2-57.3,157.2-43.2,240.9-43.5
		c84-0.3,188.7-44.7,183.3-128.4c-3.9-60.6-64.8-99.3-118.5-127.5c-84-44.1-168-88.2-252-132.6c-22.5-11.7-47.4-26.7-52.5-51.6
		c-6.6-33,25.5-60.3,55.8-75c167.4-81,392.1-10.2,482.7,152.1"/>
</g>
</svg>
