<svg width="1396" height="1403" viewBox="0 0 1396 1403" fill="none" xmlns="http://www.w3.org/2000/svg">
<rect width="1394.55" height="1401.42" fill="black" fill-opacity="0" transform="translate(0.422852 0.578979)"/>
<path d="M665.7 66.9C666.2 144 666.8 221.1 667.3 298.2C667.5 324.6 660.9 359.3 634.6 362.4C619.5 364.2 605.4 352.7 598.8 339C592.2 325.3 591.3 309.7 589.8 294.5C584.9 245.7 572.4 197.6 553 152.5C548.5 142 541.2 130.1 529.8 130.1C515.2 130.1 509.1 148.5 507.5 163C501.7 214 499.1 265.4 499.6 316.8C499.7 329.3 500 342.1 495.4 353.7C490.8 365.3 479.9 375.4 467.4 374.9C445.4 374.1 437.5 345.7 435.9 323.7C432.4 276.7 428.9 229.8 425.3 182.8C422.9 150.1 418.9 114.1 394.7 91.9C381.9 80.2 364.7 73.9 347.4 72.4C304.9 68.7 261.4 95.2 245.3 134.7C243.8 138.5 242.4 142.6 243.4 146.5C244.3 150.3 247.3 153.3 250.3 155.7C275 175.9 310.1 174.7 341.6 180.1C373.1 185.5 408.6 206.8 406 238.7C404.3 259.5 386.5 275.3 368 285C323.1 308.7 266.5 308.9 221.4 285.6" stroke="#FECA30" stroke-width="0.75" stroke-miterlimit="10"/>
<path d="M730.1 887.6C725.5 857.6 720.9 826.9 726.7 797.1C732.5 767.3 750.9 738.1 779.4 727.9C790.9 723.8 803.3 723 815.5 722.2C844.3 720.3 878.2 720.7 895.4 743.9C911 764.9 904.8 794 904.4 820.1C904 846.2 918.2 878.8 944.2 877.1C971.7 875.2 979.9 839.2 980.5 811.7C980.9 793.5 981.4 775.3 981.8 757C982 748.7 982.5 739.7 987.9 733.5C992.5 728.3 999.6 726.2 1006.4 724.5C1047.5 713.6 1099.7 706.2 1125.1 740.4C1140.2 760.7 1139.1 788.2 1140.6 813.4C1142.1 838.6 1149.7 867.5 1172.9 877.7C1182.7 882 1193.8 882.2 1204.5 882.1C1255.5 881.8 1306.4 878.3 1356.9 871.8C1365.2 870.7 1374.1 869.3 1380.3 863.7C1393 852.2 1386.4 829.2 1371.9 819.9C1357.5 810.6 1339.1 810.8 1321.9 811.4C1289.9 812.5 1258 813.6 1226 814.8C1203.4 815.6 1177.1 814.7 1163.5 796.7C1148.4 776.7 1159.6 745.8 1180.3 731.6C1201 717.4 1227.5 715.7 1252.6 715.4C1294 714.8 1335.4 716.6 1376.6 720.7" stroke="#FECA30" stroke-width="0.75" stroke-miterlimit="10"/>
<path d="M48.0003 658.5C59.3003 607 47.1003 554.9 45.2003 503.1C43.3003 451.3 53.1003 397.2 103.5 352.7C108.4 348.4 116.1 343.7 125.3 344.9C131.5 345.7 135.2 349 138 352.1C182.8 401.6 162 460.8 189.6 513.7C192.5 519.2 197.7 525.5 208.3 526.6C221.6 527.9 231.3 520.2 236.1 513.5C273.3 462.4 262 404.6 291.9 352.1C296.7 343.7 306.8 333.8 323.3 334.4C332.9 334.7 340.6 338.8 345.8 343.1C362.2 356.6 362.8 373.6 362.8 389.7C363 444.2 363.1 498.7 363.3 553.2C363.4 586 366.1 622.4 409.4 645.8C443.4 664.2 494.5 669.9 542.6 673.3C679.6 683.1 819.3 682.1 955.8 670.1C973.4 668.6 991.6 666.7 1006.5 661.5C1044.4 648.4 1047.2 616.9 1020.3 597.6C993.5 578.5 946.2 570 901 569C855.8 568 811.1 573.2 766.2 575.9C721.3 578.6 673.7 578.4 633.5 567.5C575.8 551.8 544.1 514.7 553 480.7C561.9 446.7 607.7 416.8 665.9 401.7C724.1 386.6 793.1 385.3 855.6 394.2C925.1 404.2 986.7 425.9 1054.8 438.3" stroke="#FECA30" stroke-width="0.75" stroke-miterlimit="10"/>
<path d="M1178.2 624.4C1163.2 493.1 1152.5 361.4 1146.3 229.4C1145.2 206.1 1144.5 181.6 1155.3 160.9C1166.1 140.2 1192.7 125.9 1213.4 136.6C1226.8 143.5 1233.9 158.5 1239.1 172.7C1274 270 1258.1 376.9 1261.3 480.2C1262.8 527 1269.9 577.4 1302.4 611C1312.7 621.7 1326.7 630.6 1341.5 629C1366.9 626.4 1379 596.8 1384 571.8C1414.8 417.1 1375 258.1 1335.5 105.4C1331.2 88.8 1326 70.8 1312.3 60.5C1301.4 52.3 1287.2 50.5 1273.6 49.2C1115.7 33.1 955.8 36.4 798.6 58.9C767.1 63.4 729.8 73.6 720.8 104.1C810.6 153.7 924 124.6 1022.3 153.9C1044.7 160.6 1069.9 175.6 1069.4 199C964.1 243.5 837 192.4 731 235.6C725.6 237.8 719.9 240.6 717.1 245.7C712.6 253.8 717.2 264 722.9 271.3C757.8 316.3 824.5 316.6 881.4 312.7C936.7 308.9 992.1 305.2 1047.4 301.4" stroke="#FECA30" stroke-width="0.75" stroke-miterlimit="10"/>
<path d="M115 586.2C116.4 692.6 125.7 734.9 142.9 839.9C147.7 869.1 154.7 900.9 178.2 918.7C197 933 222.2 935 245.9 936.1C353.6 941.1 461.6 939.6 569.1 931.8C604 929.2 648.7 916.3 650 881.3C650.7 861.1 634.1 843.5 615.1 836.5C596.1 829.5 575.2 830.7 555 832C484.4 836.5 413.8 841 343.2 845.5C306 847.9 263.2 848 238.5 820.1C224.9 804.7 219.9 783.6 216.1 763.3C210.8 734.9 207.1 706.3 204.7 677.5C203.6 663.7 203.2 648.5 211.4 637.3C225.7 617.9 258.3 623.2 274.2 641.2C290.2 659.2 294.1 684.5 298 708.2C301.8 731.9 307.1 757.3 324.6 773.8C345.5 793.6 377.4 794.8 406.2 794.5C457.2 794 508.1 792.2 559 789.4" stroke="#FECA30" stroke-width="0.75" stroke-miterlimit="10"/>
<path d="M449.6 1012.5C500.8 1009.4 552.1 1006.4 603.3 1003.3C617.1 1002.5 632.4 1002.1 643.1 1010.9C660.3 1025.1 653.4 1055.1 635.6 1068.5C617.8 1081.9 594 1083.3 571.7 1084.2C506.5 1086.9 441.3 1089.9 376.1 1093C360.4 1093.8 342.6 1095.5 333 1108C321.6 1122.7 328.6 1145.7 343 1157.5C357.4 1169.3 376.7 1172.8 395.2 1175.4C460.5 1184.8 526.6 1189.3 592.6 1188.6C608.5 1188.4 624.9 1187.9 639.3 1181.2C671.9 1166.2 683.7 1126.1 687.5 1090.4C691.3 1054.7 691.6 1015.9 713.6 987.5C722.9 975.5 742.6 966.8 751.9 978.7C754.7 982.3 755.7 987 756.5 991.5C771.5 1074.6 756.3 1159.9 756.2 1244.3C756.2 1261.6 757 1279.8 765.7 1294.7C774.4 1309.6 793.5 1319.9 809.5 1313.2C820.6 1308.5 827.3 1297.1 831.1 1285.7C844.6 1245.8 831.2 1202.4 821.3 1161.5C811.4 1120.6 806.2 1073.2 832.2 1039.9C856.4 1009 900 1000.9 939.2 1002.8C966.7 1004.2 1000.1 1015.2 1004.2 1042.5C1008 1068.2 981.7 1088.8 956.4 1094.4C931.1 1100 904 1096.9 879.6 1105.8C871.2 1108.9 862.8 1114 859.6 1122.3C851.4 1144.2 882.9 1158.5 906.2 1159.6C949.3 1161.7 992.7 1159.2 1035.3 1152.2" stroke="#FECA30" stroke-width="0.75" stroke-miterlimit="10"/>
<path d="M1335.5 939.1C1291.4 932.8 1246.4 926.5 1202.4 934.1C1158.5 941.7 1115 965.5 1095 1005.4C1083.5 1028.4 1080.7 1054.7 1078 1080.3C1073.2 1127.4 1068.4 1175.9 1082.4 1221.2C1096.3 1266.4 1134 1307.8 1181.2 1310.9C1207.5 1312.6 1233 1302.6 1257.1 1291.8C1270.9 1285.6 1285.4 1278.3 1293 1265.2C1306.6 1241.9 1291.7 1210.9 1269.8 1195.2C1247.9 1179.5 1220.5 1173.6 1196 1162.3C1171.4 1151.1 1147.5 1130.7 1146.1 1103.7C1144.2 1067.1 1184.1 1042.2 1220.3 1036C1238 1033 1256.4 1032.4 1273.7 1037.4C1305.3 1046.5 1329.3 1073.5 1342.2 1103.7C1355.1 1133.9 1358.5 1167.3 1360.3 1200.1C1363.1 1249.3 1361.6 1302.8 1331.3 1341.6C1287.4 1397.8 1204.4 1399.4 1133.1 1395.9C1113.3 1394.9 1092.6 1393.7 1075.4 1383.8C1041.9 1364.4 1033.8 1320.5 1012.6 1288.1C1005.3 1276.9 995.7 1266.5 983.3 1261.4C952.2 1248.6 915.7 1276.2 909.2 1309.2C902.7 1342.2 918.6 1375.8 939.6 1402C949.7 1392.1 959.8 1382.3 969.9 1372.4" stroke="#FECA30" stroke-width="0.75" stroke-miterlimit="10"/>
<path d="M90.4004 973.2C71.0004 1071.7 89.2004 1177.1 140.3 1263.5C148.4 1277.1 158.2 1291.1 173 1296.6C207.9 1309.5 240.2 1265.9 238.5 1228.7C236.8 1191.5 216.9 1157.1 214.2 1119.9C212.5 1097.1 221.6 1069.6 243.9 1064.6C260.9 1060.8 278.3 1072.8 286.4 1088.1C294.5 1103.4 295.7 1121.5 296.7 1138.9C299.5 1189.2 302.3 1239.6 305.2 1289.9C306.6 1314.1 310.1 1342.2 330.9 1354.8C341.5 1361.2 354.5 1361.9 366.8 1362.5C476.2 1367.5 597.1 1368.8 680.7 1298.1C671.3 1285.1 661.8 1272 652.4 1259C587.2 1252.2 521 1253.8 456.2 1263.9C437.7 1266.8 418.6 1270.6 403.7 1282C388.8 1293.4 379.7 1314.3 387.5 1331.3C427.9 1334.3 468.6 1334 509 1330.5" stroke="#FECA30" stroke-width="0.75" stroke-miterlimit="10"/>
<path d="M236.4 249.1C187.8 235.5 171.3 223 130.2 252.4C113 264.7 101 282.9 85.1 296.8C69.2 310.7 45.8 320.2 27 310.5C9.49997 301.4 3.19997 279.8 1.19997 260.2C-1.10003 238.1 0.999968 213.2 17.2 198C37.6 178.9 69.6 183.6 97.5 183.5C125.5 183.4 160.4 168.6 158.6 140.7C157.3 120.5 137 107.6 119.1 98.2001C91.1 83.5001 63.1 68.8001 35.1 54.0001C27.6 50.1001 19.3 45.1001 17.6 36.8001C15.4 25.8001 26.1 16.7001 36.2 11.8001C92 -15.1999 166.9 8.40005 197.1 62.5001" stroke="#FECA30" stroke-width="0.75" stroke-miterlimit="10"/>
</svg>
