<svg width="1130" height="10" viewBox="0 0 1130 10" fill="none" xmlns="http://www.w3.org/2000/svg">
<rect width="1130" height="8" fill="black" fill-opacity="0" transform="translate(0 1)"/>
<rect width="1130" height="8" fill="black" fill-opacity="0" transform="translate(0 1)"/>
<path d="M0 1C26.867 1 26.867 9 53.8095 9C80.6766 9 80.6766 1 107.619 1C134.486 1 134.486 9 161.429 9C188.296 9 188.296 1 215.238 1C242.105 1 242.105 9 269.048 9C295.915 9 295.915 1 322.857 1C349.724 1 349.724 9 376.667 9C403.534 9 403.534 1 430.476 1C457.343 1 457.343 9 484.286 9C511.153 9 511.153 1 538.095 1C564.962 1 564.962 9 591.905 9C618.772 9 618.772 1 645.714 1C672.581 1 672.581 9 699.524 9C726.391 9 726.391 1 753.333 1C780.2 1 780.2 9 807.143 9C834.01 9 834.01 1 860.952 1C887.819 1 887.819 9 914.762 9C941.629 9 941.629 1 968.571 1C995.438 1 995.438 9 1022.38 9C1049.25 9 1049.25 1 1076.19 1C1103.06 1 1103.06 9 1130 9" stroke="#27262C" stroke-width="1.5" stroke-miterlimit="10"/>
</svg>
