<svg width="626" height="7" viewBox="0 0 626 7" fill="none" xmlns="http://www.w3.org/2000/svg">
<rect width="626" height="5" fill="black" fill-opacity="0" transform="translate(0 1)"/>
<rect width="626" height="5" fill="black" fill-opacity="0" transform="translate(0 1)"/>
<path d="M0 1C14.8839 1 14.8839 6 29.8095 6C44.6934 6 44.6934 1 59.619 1C74.5029 1 74.5029 6 89.4286 6C104.312 6 104.312 1 119.238 1C134.122 1 134.122 6 149.048 6C163.931 6 163.931 1 178.857 1C193.741 1 193.741 6 208.667 6C223.551 6 223.551 1 238.476 1C253.36 1 253.36 6 268.286 6C283.17 6 283.17 1 298.095 1C312.979 1 312.979 6 327.905 6C342.789 6 342.789 1 357.714 1C372.598 1 372.598 6 387.524 6C402.408 6 402.408 1 417.333 1C432.217 1 432.217 6 447.143 6C462.027 6 462.027 1 476.952 1C491.836 1 491.836 6 506.762 6C521.646 6 521.646 1 536.571 1C551.455 1 551.455 6 566.381 6C581.265 6 581.265 1 596.19 1C611.074 1 611.074 6 626 6" stroke="#27262C" stroke-width="1.5" stroke-miterlimit="10"/>
</svg>
